# xmcd
#
# Track frame offsets:
#	150
#	16779
#	29886
#	44752
#	62272
#	79083
#	97494
#	115275
#	131253
#	133577
#	147034
#
# Disc length: 2169 seconds
#
# Revision: 0
# Processed by: cddbd v1.4PL0 Copyright (c) Steve Scherf et al.
# Submitted via: dBpowerAMP V4.0
#
DISCID=9908770b
DTITLE=Trace County - Something Left Behind
DYEAR=2003
DGENRE=Alt. Country
TTITLE0=Over Texas
TTITLE1=More and More Each Day
TTITLE2=Something Left Behind
TTITLE3=Holdin' On
TTITLE4=Kentucky Dreams
TTITLE5=Goodbye
TTITLE6=Drifter
TTITLE7=Nelson's Loop
TTITLE8=Sunday Morning Hangover
TTITLE9=Barstool Preacher
TTITLE10=Something Left Behind (Remix)
EXTD=
EXTT0=
EXTT1=
EXTT2=
EXTT3=
EXTT4=
EXTT5=
EXTT6=
EXTT7=
EXTT8=
EXTT9=
EXTT10=
PLAYORDER=
